<svg width="100" height="50" viewBox="0 0 100 50" fill="none" xmlns="http://www.w3.org/2000/svg">
<path d="M30.9206 49.3964C18.0797 44.7773 7.27154 36.4234 0 25.3508C8.17222 13.7907 16.2783 6.46964 33.1847 0.561523C16.047 10.2624 14.7166 38.1008 30.9206 49.3964Z" fill="currentColor"/>
<path d="M99.1737 25.3512C92.0922 36.4733 79.4497 46.0089 66.4766 50C83.8043 38.7952 82.3665 9.46951 64.0968 0C76.5906 2.35498 94.4307 16.3196 99.1737 25.3512Z" fill="currentColor"/>
<path d="M30.9206 49.3964C18.0797 44.7856 7.26327 36.4234 0 25.3508C8.17222 13.7907 16.2866 6.46964 33.1847 0.561523C16.047 10.2624 14.7166 38.1008 30.9206 49.3964Z" fill="currentColor"/>
<path d="M54.4621 32.0776L56.1478 45.5547L49.5869 33.6559L43.026 45.5547L44.7117 32.0694L32.4079 37.8453L41.6874 27.9213L28.3507 25.3515L41.6874 22.7816L32.4079 12.8659L44.7117 18.6336L43.026 5.14819L49.5869 17.0471L56.1478 5.14819L54.4621 18.6336L66.7659 12.8659L57.4864 22.7816L70.8231 25.3515L57.4864 27.9213L66.7659 37.8453L54.4621 32.0776Z" fill="currentColor"/>
<path d="M99.1737 25.3512C92.0922 36.4733 79.4497 46.0089 66.4766 50C83.8043 38.7952 82.3665 9.46951 64.0968 0C76.5824 2.35498 94.4307 16.3196 99.1737 25.3512Z" fill="currentColor"/>
<path d="M66.7659 37.8453L54.4621 32.0776L56.1478 45.5547L49.5869 33.6559L43.026 45.5547L44.7117 32.0694L32.4079 37.8453L41.6874 27.9213L28.3507 25.3515L41.6874 22.7816L32.4079 12.8659L44.7117 18.6336L43.026 5.14819L49.5869 17.0471L56.1478 5.14819L54.4621 18.6336L66.7659 12.8659L57.4864 22.7816L70.8231 25.3515L57.4864 27.9213L66.7659 37.8453Z" fill="currentColor"/>
</svg>
