<svg width="140" height="90" viewBox="0 0 140 90" fill="none" xmlns="http://www.w3.org/2000/svg">
<g clip-path="url(#clip0_323_347)">
<path d="M52.045 45.0023C52.045 30.1164 59.1114 16.916 70 8.72575C62.7106 3.24073 53.7149 0 43.9775 0C19.6886 0 0 20.1474 0 45.0023C0 69.8572 19.6886 90.0047 43.9775 90.0047C53.7149 90.0047 62.7152 86.7639 70 81.2789C59.116 73.0886 52.045 59.8929 52.045 45.0023Z" fill="black"/>
<path d="M96.0225 0C86.2851 0 77.2848 3.24073 70 8.72575C80.884 16.916 87.955 30.1118 87.955 45.0023C87.955 59.8929 80.8886 73.0886 70 81.2789C77.2848 86.7639 86.2851 90.0047 96.0225 90.0047C120.311 90.0047 140 69.8572 140 45.0023C140 20.1474 120.311 0 96.0225 0Z" fill="black"/>
</g>
<defs>
<clipPath id="clip0_323_347">
<rect width="140" height="90" fill="white"/>
</clipPath>
</defs>
</svg>
