<svg width="187" height="218" viewBox="0 0 187 218" fill="none" xmlns="http://www.w3.org/2000/svg">
<g clip-path="url(#clip0_99_70)">
<path d="M5.0671e-05 218C51.643 218 93.5049 175.755 93.5049 123.64L5.47956e-05 123.64L5.0671e-05 218Z" fill="currentColor"/>
<path d="M93.4952 218C145.138 218 187 175.755 187 123.65L93.4952 123.65L93.4952 218.01L93.4952 218Z" fill="currentColor"/>
<path d="M187 8.17403e-06C135.357 5.91665e-06 93.4952 42.2449 93.4952 94.3603L187 94.3603L187 8.17403e-06Z" fill="currentColor"/>
<path d="M93.4951 8.17403e-06C41.8522 5.91665e-06 -0.0097143 42.2449 -0.00971657 94.3603L93.4951 94.3603L93.4951 8.17403e-06Z" fill="currentColor"/>
</g>
<defs>
<clipPath id="clip0_99_70">
<rect width="218" height="187" fill="currentColor" transform="translate(187 8.17403e-06) rotate(90)"/>
</clipPath>
</defs>
</svg>
