<svg width="169" height="101" viewBox="0 0 169 101" fill="none" xmlns="http://www.w3.org/2000/svg">
<path d="M125.142 3.33515L125.142 88.6659C149.026 88.6659 168.385 69.5637 168.385 45.9982C168.385 22.4328 149.026 3.33515 125.142 3.33515Z" fill="#FF5C00"/>
<path d="M103.112 4.8855L67.4021 82.3847C89.0935 92.3797 114.671 83.1325 124.532 61.7298C134.394 40.3272 124.804 14.8805 103.112 4.8855Z" fill="#FF5C00"/>
<path d="M43.4733 85.7844C67.2307 85.7844 86.2865 66.5809 86.0357 42.8923C85.7849 19.2035 66.3226 1.72359e-06 42.5652 3.80053e-06C18.8078 5.87747e-06 -0.248349 19.2035 0.00245407 42.8923C0.253257 66.5809 19.7159 85.7844 43.4733 85.7844Z" fill="#FF5C00"/>
</svg>
